<svg xmlns="http://www.w3.org/2000/svg" width="410" height="125"><g fill="none" fill-rule="evenodd"><path d="M0 0h410v125H0z"/><path fill="#FFF" d="M69.97 20.524c7.382 3.309 14.278 7.289 20.687 11.94a115.44 115.44 0 0 1 17.21 15.358l.584.64a5.978 5.978 0 0 1 1.517 4.636 112.744 112.744 0 0 1-4.934 23.23 116.414 116.414 0 0 1-9.33 21.184l-.43.757a5.989 5.989 0 0 1-4.042 2.898 122.825 122.825 0 0 1-23.74 2.333c-7.92 0-15.841-.78-23.762-2.338a5.989 5.989 0 0 1-4.025-2.87 111.824 111.824 0 0 1-9.632-21.59A116.94 116.94 0 0 1 25.133 54l-.098-.869a5.978 5.978 0 0 1 1.538-4.69 118.398 118.398 0 0 1 17.757-15.85 120.046 120.046 0 0 1 19.88-11.673l.816-.377a5.995 5.995 0 0 1 4.944-.018Zm-4.43 4.026-.267.113-.735.34a108.041 108.041 0 0 0-17.891 10.505 106.558 106.558 0 0 0-15.981 14.265 5.38 5.38 0 0 0-1.407 3.95l.023.271.088.781c.818 7.026 2.3 13.836 4.446 20.432a100.642 100.642 0 0 0 8.669 19.431 5.39 5.39 0 0 0 3.622 2.583 110.546 110.546 0 0 0 21.386 2.104c7.122 0 14.244-.7 21.366-2.1a5.39 5.39 0 0 0 3.495-2.373l.143-.235.387-.681a104.772 104.772 0 0 0 8.397-19.066 101.47 101.47 0 0 0 4.44-20.907 5.38 5.38 0 0 0-1.178-3.955l-.187-.217-.526-.577a103.895 103.895 0 0 0-15.488-13.82c-5.769-4.187-11.975-7.77-18.62-10.747a5.396 5.396 0 0 0-3.91-.196l-.272.099Zm3.936 4.22a92.495 92.495 0 0 1 16.55 9.552 92.351 92.351 0 0 1 13.767 12.285l.468.513a4.782 4.782 0 0 1 1.213 3.708 90.195 90.195 0 0 1-3.947 18.584 93.131 93.131 0 0 1-7.464 16.947l-.344.606a4.791 4.791 0 0 1-3.233 2.319 98.26 98.26 0 0 1-18.992 1.866 98.263 98.263 0 0 1-19.01-1.87 4.791 4.791 0 0 1-3.22-2.296 89.46 89.46 0 0 1-7.706-17.272 93.552 93.552 0 0 1-3.951-18.162l-.079-.694a4.782 4.782 0 0 1 1.23-3.752 94.719 94.719 0 0 1 14.206-12.68 96.037 96.037 0 0 1 15.903-9.339l.654-.301a4.796 4.796 0 0 1 3.955-.015Zm-3.594 1.974-.237.1-.613.283a90.035 90.035 0 0 0-14.91 8.754A88.799 88.799 0 0 0 36.805 51.77a4.484 4.484 0 0 0-1.174 3.261l.02.257.074.65a87.705 87.705 0 0 0 3.705 17.027 83.868 83.868 0 0 0 7.224 16.193 4.492 4.492 0 0 0 3.018 2.152 92.122 92.122 0 0 0 17.822 1.754c5.935 0 11.87-.584 17.805-1.75a4.492 4.492 0 0 0 2.905-1.966l.127-.208.322-.568a87.31 87.31 0 0 0 6.997-15.888 84.558 84.558 0 0 0 3.7-17.422 4.483 4.483 0 0 0-.971-3.284l-.166-.193-.438-.48a86.58 86.58 0 0 0-12.907-11.518 86.714 86.714 0 0 0-15.516-8.955 4.497 4.497 0 0 0-3.228-.173l-.242.086Zm23.524 40.228-11.452 3.235c-2.526.723-4.054 1.172-4.586 1.348l-.091.031c-1.228.43-1.28 1.386-.722 2.142l8.742 10.355c.29.415-.294 1.218-.963.77L68.786 81.29c-.498-.326-.77-.449-1.283-.449-.474 0-.743.105-1.173.377l-11.66 7.634c-.71.449-1.251-.354-.961-.769l8.66-10.254c.615-.735.641-1.705-.48-2.18l-.16-.063-.473-.151c-1.675-.516-6.894-2.004-15.657-4.463-.796-.345-.685-1.133.32-1.09 8.08.855 15.275 1.282 21.584 1.282 6.308 0 13.503-.427 21.583-1.281 1-.044 1.107.748.32 1.09Zm-23.5-32.922v8.732a.53.53 0 0 1-.42.52l-3.187.684a.531.531 0 0 1-.643-.519v-4.01a58.294 58.294 0 0 0-4.515 2.73 68.7 68.7 0 0 0-4.516 3.262v12.75c3.065.236 6.075.414 9.031.535v-2.478a.53.53 0 0 1 .453-.525l3.188-.476c.29-.043.56.157.603.447l.006.078.001 7.13c-5.257-.058-11.1-.399-17.532-1.023V48.083c1.976-1.705 4.533-3.576 7.67-5.614a74.586 74.586 0 0 1 8.677-4.844c.393-.186 1.184-.097 1.184.425Zm95.188 32.92V100h-5.776V76.777h-14.5V100H135V70.97h26.094Zm29.885 0 2.867 2.945V88.43l-2.867 2.903h-17.41V100h-5.817V70.97h23.227Zm32.337 0 2.867 2.945V97.14L223.316 100h-20.36l-2.867-2.861V73.915l2.867-2.944h20.36Zm34.207 0v5.807h-18.865v5.847h17.41v5.806h-17.41v5.764h18.865V100H232.84V70.97h24.682Zm12.06 0v11.654h8.684l5.817-5.806v-5.847h5.775v8.75l-5.775 5.806 5.775 5.806V100h-5.775v-5.806l-5.817-5.764h-8.684V100h-5.818V70.97h5.818Zm51.367 0v5.807h-10.097V100h-5.817V76.777h-10.18V70.97h26.094Zm-100.542 5.807h-14.502v17.417h14.502V76.777Zm-32.337 0h-14.502v8.75h14.502v-8.75ZM70.217 37.607c3.234 1.55 6.055 3.077 8.463 4.584 2.684 1.679 5.332 3.62 7.945 5.823v17.873c-1.447.14-2.863.267-4.25.378V49.39l-.232-.19-.4-.315-.305-.233a70.788 70.788 0 0 0-2.828-2.002 68.422 68.422 0 0 0-5.266-3.231v23.388c-1.458.054-2.874.088-4.25.103V38.05c0-.425.754-.62 1.123-.443ZM287.117 30v23.223h2.95v11.612h-5.817V59.03h-17.41v5.806h-5.817V53.223h2.867V38.71L272.616 30h14.501ZM385 30v5.806h-10.097v23.223h-5.817V35.806h-10.18V30H385Zm-33.957 0 2.867 2.944V47.46l-2.867 2.903h-17.41v8.667h-5.817V30h23.227Zm-192.816 0 2.867 2.944v5.765h-5.776v-2.903h-14.5v17.417h14.5v-2.861h5.776v5.806l-2.867 2.861h-20.36L135 56.168V32.944L137.867 30h20.36Zm33.957 0v5.806h-10.097v23.223h-5.817V35.806h-10.18V30h26.094Zm31.09 0v29.03H217.5v-8.668h-14.501v8.667h-5.818V38.75l8.685-8.75h17.41Zm97.883 0v29.03h-5.775v-8.668H300.88v8.667h-5.818V38.75l8.685-8.75h17.41Zm-85.407 0v11.653h14.501V30h5.776v29.03h-5.776V47.458H235.75v11.57h-5.817V30h5.817Zm45.591 5.806h-5.817l-5.817 5.806v11.611h11.635V35.806Zm-63.842 0h-8.726l-5.775 5.847v2.903h14.501v-8.75Zm97.883 0h-8.726l-5.775 5.847v2.903h14.5v-8.75Zm32.752 0h-14.501v8.75h14.501v-8.75Z"/></g></svg>